{
  "accessors": [
    {
      "bufferView": 2,
      "componentType": 5126,
      "count": 34307,
      "max": [
        0.021900000050663948,
        0.00031400000443682075,
        0.21440300345420837
      ],
      "min": [
        -0.04497399926185608,
        -0.008317000232636929,
        0.004728999920189381
      ],
      "type": "VEC3"
    },
    {
      "bufferView": 2,
      "byteOffset": 411684,
      "componentType": 5126,
      "count": 34307,
      "max": [
        0.9999905824661255,
        0.9999953508377075,
        0.99991774559021
      ],
      "min": [
        -0.9999821186065674,
        -0.9999996423721313,
        -0.9999053478240967
      ],
      "type": "VEC3"
    },
    {
      "bufferView": 3,
      "componentType": 5126,
      "count": 34307,
      "max": [
        0.9999171495437622,
        0.9999584555625916,
        0.9999889731407166,
        1.0
      ],
      "min": [
        -0.9999948143959045,
        -0.999927282333374,
        -0.9999997615814209,
        -1.0
      ],
      "type": "VEC4"
    },
    {
      "bufferView": 1,
      "componentType": 5126,
      "count": 34307,
      "max": [
        0.9996770024299622,
        0.9978029727935791
      ],
      "min": [
        0.00024399999529123306,
        0.0002479999966453761
      ],
      "type": "VEC2"
    },
    {
      "bufferView": 0,
      "componentType": 5125,
      "count": 149874,
      "type": "SCALAR"
    }
  ],
  "asset": {
    "extras": {
      "author": "Second Studio (https://sketchfab.com/kayaaku)",
      "license": "CC-BY-4.0 (http://creativecommons.org/licenses/by/4.0/)",
      "source": "https://sketchfab.com/3d-models/rusty-scissors-a44b635796294b448aeb363903ca03b7",
      "title": "Rusty scissors"
    },
    "generator": "Sketchfab-13.58.0",
    "version": "2.0"
  },
  "bufferViews": [
    {
      "buffer": 0,
      "byteLength": 599496,
      "name": "floatBufferViews",
      "target": 34963
    },
    {
      "buffer": 0,
      "byteLength": 274456,
      "byteOffset": 599496,
      "byteStride": 8,
      "name": "floatBufferViews",
      "target": 34962
    },
    {
      "buffer": 0,
      "byteLength": 823368,
      "byteOffset": 873952,
      "byteStride": 12,
      "name": "floatBufferViews",
      "target": 34962
    },
    {
      "buffer": 0,
      "byteLength": 548912,
      "byteOffset": 1697320,
      "byteStride": 16,
      "name": "floatBufferViews",
      "target": 34962
    }
  ],
  "buffers": [
    {
      "byteLength": 2246232,
      "uri": "scene.bin"
    }
  ],
  "images": [
    {
      "uri": "textures/hasami_u1_v1_baseColor.jpeg"
    },
    {
      "uri": "textures/hasami_u1_v1_normal.png"
    }
  ],
  "materials": [
    {
      "doubleSided": true,
      "name": "hasami_u1_v1",
      "normalTexture": {
        "index": 1
      },
      "pbrMetallicRoughness": {
        "baseColorTexture": {
          "index": 0
        },
        "metallicFactor": 0.0
      }
    }
  ],
  "meshes": [
    {
      "name": "Object_0",
      "primitives": [
        {
          "attributes": {
            "NORMAL": 1,
            "POSITION": 0,
            "TANGENT": 2,
            "TEXCOORD_0": 3
          },
          "indices": 4,
          "material": 0,
          "mode": 4
        }
      ]
    }
  ],
  "nodes": [
    {
      "children": [
        1
      ],
      "matrix": [
        1.0,
        0.0,
        0.0,
        0.0,
        0.0,
        2.220446049250313e-16,
        -1.0,
        0.0,
        0.0,
        1.0,
        2.220446049250313e-16,
        0.0,
        0.0,
        0.0,
        0.0,
        1.0
      ],
      "name": "Sketchfab_model"
    },
    {
      "children": [
        2
      ],
      "name": "hasami.obj.cleaner.materialmerger.gles"
    },
    {
      "mesh": 0,
      "name": "Object_2"
    }
  ],
  "samplers": [
    {
      "magFilter": 9729,
      "minFilter": 9987,
      "wrapS": 10497,
      "wrapT": 10497
    }
  ],
  "scene": 0,
  "scenes": [
    {
      "name": "Sketchfab_Scene",
      "nodes": [
        0
      ]
    }
  ],
  "textures": [
    {
      "sampler": 0,
      "source": 0
    },
    {
      "sampler": 0,
      "source": 1
    }
  ]
}
